<svg version="1.1" xmlns="http://www.w3.org/2000/svg" width="1024" height="1024">
<path d="M0 0 C337.92 0 675.84 0 1024 0 C1024 337.92 1024 675.84 1024 1024 C686.08 1024 348.16 1024 0 1024 C0 686.08 0 348.16 0 0 Z " fill="#FEFEFE" transform="translate(0,0)"/>
<path d="M0 0 C1.063 0.005 1.063 0.005 2.147 0.01 C9.221 0.153 15.864 1.462 22.688 3.312 C23.473 3.517 24.258 3.722 25.066 3.934 C40.326 8.458 54.326 17.525 62.688 31.312 C65.36 37.143 67.585 42.98 68.688 49.312 C69.541 48.993 70.394 48.673 71.273 48.344 C79.402 45.888 87.491 46.276 95.188 49.875 C105.257 55.625 109.217 63.918 112.812 74.68 C114.227 80.639 113.985 86.785 113.948 92.874 C113.938 94.978 113.948 97.081 113.961 99.186 C113.976 113.16 111.549 125.933 107.688 139.312 C107.367 140.429 107.046 141.545 106.715 142.695 C104.424 150.392 101.665 157.857 98.688 165.312 C99.722 165.208 99.722 165.208 100.777 165.102 C107.291 164.726 111.426 165.432 116.676 169.391 C122.015 174.491 125.736 180.343 125.926 187.812 C126.309 206.703 126.309 206.703 121.688 215.312 C121.051 216.562 121.051 216.562 120.402 217.836 C114.408 228.69 106.451 236.286 95.688 242.312 C94.574 242.952 93.46 243.591 92.312 244.25 C89.524 245.379 87.656 245.397 84.688 245.312 C84.711 245.916 84.735 246.52 84.76 247.142 C84.903 253.549 84.155 259.288 82.625 265.5 C82.403 266.411 82.181 267.321 81.953 268.259 C77.605 285.155 68.238 305.11 53.062 314.688 C50.403 317.078 50.403 317.078 50.512 320.172 C50.821 324.409 51.342 328.277 52.688 332.312 C52.97 334.182 53.217 336.057 53.441 337.934 C53.64 339.584 53.64 339.584 53.842 341.268 C53.977 342.417 54.111 343.566 54.25 344.75 C54.389 345.895 54.527 347.041 54.67 348.221 C55.193 352.624 55.688 356.873 55.688 361.312 C56.348 360.983 57.007 360.652 57.688 360.312 C66.406 359.394 72.536 360.986 80.25 364.875 C92.032 370.407 103.979 373.562 116.604 376.563 C120.994 377.63 125.341 378.831 129.688 380.062 C131.109 380.462 132.531 380.862 133.953 381.262 C135.185 381.608 136.418 381.955 137.688 382.312 C139.604 382.836 141.52 383.357 143.438 383.875 C144.284 384.11 145.131 384.344 146.004 384.586 C147.963 385.116 149.931 385.618 151.902 386.102 C174.264 391.887 189.434 403.928 201.375 423.688 C214.537 446.275 223.69 470.858 232.688 495.312 C233.081 496.377 233.474 497.442 233.879 498.539 C235.553 503.101 237.173 507.654 238.562 512.312 C239.678 516.011 240.806 519.703 241.992 523.379 C248.457 543.448 254.175 563.725 259.167 584.209 C259.926 587.275 260.741 590.325 261.562 593.375 C266.165 610.541 270.651 627.699 274.422 645.07 C275.915 651.922 277.507 658.738 279.192 665.544 C285.499 691.037 290.917 716.777 294.824 742.75 C295.666 748.319 296.701 753.842 297.75 759.375 C299.708 769.901 301.132 780.45 302.315 791.089 C302.688 794.316 303.112 797.534 303.539 800.754 C305.756 818.737 306.01 836.644 306.062 854.75 C306.07 856.002 306.078 857.255 306.086 858.545 C306.104 862.154 306.099 865.762 306.086 869.371 C306.092 870.456 306.098 871.542 306.104 872.66 C305.982 886.018 305.982 886.018 301.688 890.312 C299.25 890.5 299.25 890.5 296.688 890.312 C294.031 887.656 294.426 886.394 294.4 882.683 C294.387 881.499 294.374 880.316 294.36 879.096 C294.354 877.804 294.349 876.511 294.344 875.18 C294.33 873.828 294.315 872.475 294.299 871.123 C294.251 866.811 294.218 862.5 294.188 858.188 C294.146 852.581 294.098 846.974 294.031 841.367 C294.023 840.681 294.015 839.994 294.006 839.287 C293.839 826.567 293.008 813.963 291.688 801.312 C291.603 800.491 291.519 799.669 291.432 798.822 C290.584 790.622 289.444 782.529 287.938 774.422 C286.407 766.059 285.238 757.641 284.045 749.225 C283.883 748.1 283.722 746.975 283.555 745.816 C283.411 744.804 283.268 743.791 283.121 742.748 C282.807 740.314 282.807 740.314 281.688 738.312 C281.392 736.481 281.102 734.648 280.84 732.811 C278.944 719.566 276.081 706.546 273.173 693.494 C272.666 691.215 272.163 688.934 271.661 686.654 C265.339 657.991 258.354 629.51 251.148 601.058 C249.769 595.612 248.4 590.164 247.052 584.711 C246.788 583.643 246.523 582.574 246.251 581.473 C245.758 579.481 245.267 577.488 244.779 575.495 C242.661 566.943 240.104 558.543 237.484 550.133 C235.579 544.006 233.784 537.85 232 531.688 C227.674 516.526 227.674 516.526 222.549 501.625 C221.581 499.027 220.66 496.416 219.742 493.801 C214.906 480.057 209.714 466.579 203.688 453.312 C203.246 452.339 202.805 451.366 202.35 450.364 C194.741 433.633 194.741 433.633 184.688 418.312 C184.051 417.437 183.414 416.562 182.758 415.66 C170.152 399.843 147.144 395.924 128.619 391.051 C87.16 380.124 87.16 380.124 68.688 370.312 C68.605 371.364 68.523 372.416 68.438 373.5 C67.435 378.596 65.418 380.933 61.418 384.121 C43.996 395.281 25.264 399.5 4.719 399.498 C2.523 399.5 0.327 399.518 -1.869 399.537 C-19.689 399.609 -39.745 397.082 -53.312 384.312 C-55.951 380.764 -56.45 378.662 -56.312 374.312 C-57.31 374.592 -58.308 374.872 -59.336 375.16 C-64.325 376.555 -69.319 377.934 -74.312 379.312 C-75.202 379.559 -76.091 379.805 -77.008 380.059 C-88.311 383.181 -99.64 386.165 -111.027 388.961 C-111.977 389.195 -112.927 389.429 -113.906 389.67 C-118.648 390.838 -123.392 391.997 -128.14 393.141 C-137.401 395.397 -146.543 397.883 -155.605 400.844 C-156.448 401.114 -157.29 401.385 -158.158 401.664 C-184.233 410.44 -195.634 433.744 -208.312 456.312 C-208.867 457.297 -209.422 458.282 -209.994 459.297 C-215.137 468.434 -220.261 477.582 -225.32 486.766 C-225.777 487.592 -226.233 488.419 -226.703 489.271 C-227.54 490.79 -228.374 492.31 -229.205 493.832 C-232.101 499.088 -232.101 499.088 -234.09 501.195 C-236.2 504.849 -235.47 508.769 -235.188 512.875 C-235.131 513.811 -235.075 514.747 -235.017 515.711 C-233.923 531.831 -230.583 547.488 -227.013 563.213 C-226.285 566.435 -225.575 569.661 -224.867 572.887 C-222.117 585.269 -218.893 597.311 -214.942 609.36 C-212.276 617.626 -211.072 625.297 -210.629 633.961 C-210.336 637.063 -209.729 639.558 -208.75 642.5 C-207.152 647.758 -206.979 652.795 -206.938 658.25 C-206.924 659.08 -206.91 659.91 -206.896 660.764 C-206.94 666.686 -206.94 666.686 -208.836 669.879 C-209.323 670.352 -209.81 670.825 -210.312 671.312 C-214.188 670.437 -214.188 670.437 -215.312 669.312 C-215.544 667.798 -215.725 666.275 -215.875 664.75 C-215.959 663.924 -216.043 663.097 -216.129 662.246 C-216.189 661.608 -216.25 660.97 -216.312 660.312 C-216.483 660.858 -216.653 661.403 -216.828 661.965 C-221.499 676.499 -221.499 676.499 -225.312 680.312 C-227.438 679.938 -227.438 679.938 -229.312 679.312 C-229.633 673.17 -228.44 667.813 -226.938 661.875 C-226.605 660.521 -226.605 660.521 -226.266 659.139 C-224.504 651.985 -224.504 651.985 -223.72 649.235 C-219.877 635.469 -221.552 621.384 -226.531 608.238 C-233.169 590.576 -236.45 571.523 -239.796 553.019 C-240.266 550.558 -240.804 548.129 -241.379 545.691 C-242.457 540.952 -242.981 536.209 -243.438 531.375 C-243.524 530.545 -243.61 529.716 -243.699 528.861 C-244.273 522.997 -244.411 517.203 -244.312 511.312 C-244.972 511.312 -245.632 511.312 -246.312 511.312 C-246.653 512.395 -246.653 512.395 -247 513.5 C-251.698 523.568 -264.499 528.969 -274.313 532.635 C-297.178 540.381 -324.81 542.306 -347 531.812 C-355.346 527.246 -355.346 527.246 -357.312 523.312 C-357.523 532.218 -357.288 540.725 -355.953 549.555 C-354.878 557.041 -354.265 564.593 -353.556 572.122 C-353.372 574.076 -353.184 576.03 -352.996 577.984 C-352.888 579.13 -352.781 580.276 -352.67 581.456 C-352.399 584.38 -352.399 584.38 -351.312 587.312 C-351.007 590.372 -350.804 593.432 -350.594 596.5 C-350.409 599.39 -350.409 599.39 -349.312 602.312 C-349.119 604.143 -348.93 605.975 -348.768 607.808 C-347.907 617.525 -346.471 627.131 -344.875 636.75 C-344.67 638.005 -344.464 639.259 -344.253 640.552 C-343.114 647.295 -341.744 653.901 -340.02 660.518 C-339.353 663.153 -338.778 665.788 -338.242 668.453 C-332.868 694.818 -323.343 725.845 -300.84 742.66 C-288.406 750.789 -274.76 752.65 -260.105 749.898 C-256.275 748.828 -252.812 747.176 -249.312 745.312 C-248.164 744.788 -248.164 744.788 -246.992 744.254 C-233.18 737.496 -223.374 725.312 -214.312 713.312 C-213.873 712.737 -213.434 712.161 -212.982 711.567 C-194.213 686.771 -179.556 658.594 -164.897 631.265 C-162.195 626.232 -159.476 621.208 -156.75 616.188 C-156.261 615.281 -155.772 614.374 -155.269 613.44 C-154.808 612.591 -154.346 611.742 -153.871 610.867 C-153.437 610.066 -153.003 609.266 -152.556 608.44 C-151.312 606.312 -151.312 606.312 -149.008 603.383 C-146.464 598.776 -146.674 594.493 -146.75 589.312 C-146.759 588.276 -146.768 587.24 -146.777 586.173 C-146.961 579.217 -148.105 573.73 -150.875 567.316 C-154.275 558.782 -155.152 549.132 -156.765 540.131 C-157.21 537.839 -157.734 535.63 -158.359 533.383 C-159.886 527.564 -160.27 521.532 -160.875 515.562 C-161.124 513.151 -161.375 510.739 -161.629 508.328 C-161.737 507.269 -161.844 506.21 -161.955 505.118 C-162.232 502.443 -162.232 502.443 -162.819 500.413 C-163.571 497.211 -163.687 493.965 -163.891 490.691 C-163.998 489.117 -164.105 487.543 -164.214 485.969 C-164.298 484.724 -164.298 484.724 -164.385 483.454 C-165.521 466.957 -167.266 450.641 -169.687 434.283 C-171.87 419.436 -171.87 419.436 -171.312 413.312 C-169.979 411.584 -169.979 411.584 -168.312 410.312 C-167.322 410.312 -166.332 410.312 -165.312 410.312 C-162.97 415.099 -161.908 419.078 -161.523 424.395 C-161.416 426.395 -161.416 426.395 -160.312 428.312 C-156.631 445.076 -155.501 462.377 -154.065 479.438 C-152.003 503.887 -149.313 528.266 -144.312 552.312 C-141.885 552.312 -139.683 551.812 -137.312 551.312 C-134.855 554.998 -135.068 556.825 -135.082 561.219 C-135.082 561.899 -135.083 562.579 -135.083 563.279 C-135.086 564.722 -135.094 566.164 -135.107 567.606 C-135.125 569.777 -135.127 571.947 -135.127 574.117 C-135.151 580.967 -135.412 587.659 -136.067 594.477 C-136.459 599.008 -136.619 603.542 -136.777 608.086 C-136.855 610.133 -136.932 612.179 -137.01 614.226 C-137.068 615.808 -137.068 615.808 -137.128 617.422 C-137.713 633.111 -138.369 648.77 -139.564 664.425 C-140.355 675.087 -140.799 685.757 -141.25 696.438 C-141.882 711.332 -142.725 726.194 -143.812 741.062 C-144.804 754.682 -145.702 768.298 -146.375 781.938 C-146.415 782.743 -146.455 783.548 -146.496 784.378 C-146.983 794.363 -147.398 804.35 -147.773 814.34 C-149.204 852.356 -149.204 852.356 -150.51 871.056 C-150.627 872.753 -150.738 874.45 -150.843 876.148 C-150.989 878.471 -151.158 880.792 -151.336 883.113 C-151.428 884.414 -151.52 885.715 -151.615 887.056 C-152.404 890.739 -153.315 892.086 -156.312 894.312 C-158.5 894.188 -158.5 894.188 -160.312 893.312 C-162.663 888.612 -161.606 881.857 -161.625 876.625 C-161.629 875.846 -161.632 875.067 -161.636 874.264 C-161.672 854.265 -160.218 834.331 -158.823 814.392 C-157.964 802.032 -157.198 789.698 -156.836 777.312 C-156.328 760.134 -155.174 743.003 -154.043 725.857 C-152.718 705.747 -151.402 685.637 -150.293 665.515 C-150.206 663.944 -150.118 662.373 -150.03 660.801 C-149.366 648.966 -149.059 637.166 -149.312 625.312 C-150.243 626.988 -151.174 628.664 -152.105 630.339 C-152.972 631.9 -153.84 633.46 -154.708 635.02 C-157.447 639.946 -160.176 644.878 -162.895 649.816 C-179.789 680.462 -197.21 711.662 -221.312 737.312 C-221.922 737.998 -222.532 738.684 -223.16 739.391 C-235.455 752.651 -252.854 760.676 -270.805 761.566 C-288.067 762.136 -300.348 757.365 -313.5 746 C-338.138 722.839 -346.389 687.952 -352.918 655.959 C-353.642 652.419 -354.405 648.916 -355.34 645.426 C-356.592 640.512 -357.149 635.528 -357.75 630.5 C-358.492 624.355 -359.313 618.239 -360.33 612.133 C-362.392 599.668 -363.789 587.145 -365.102 574.582 C-365.497 570.845 -365.911 567.11 -366.326 563.375 C-367.655 551.008 -368.586 538.724 -368.676 526.281 C-368.69 525.149 -368.705 524.017 -368.72 522.851 C-368.715 521.801 -368.71 520.752 -368.704 519.67 C-368.702 518.753 -368.7 517.836 -368.698 516.891 C-368.229 513.753 -367.203 511.843 -365.312 509.312 C-362.812 509 -362.812 509 -360.312 509.312 C-356.404 509.312 -355.197 507.807 -352.312 505.312 C-353.493 502.127 -354.89 499.105 -356.414 496.074 C-366.588 475.751 -372.51 455.122 -377.454 433.039 C-381.835 413.5 -388.086 395.572 -395.867 377.125 C-396.683 375.188 -397.498 373.25 -398.312 371.312 C-398.685 370.427 -399.058 369.541 -399.442 368.629 C-408.412 347.023 -408.412 347.023 -404.57 336.227 C-402.598 332.885 -399.838 330.788 -396.312 329.312 C-392.625 329.125 -392.625 329.125 -389.312 329.312 C-388.653 329.312 -387.993 329.312 -387.312 329.312 C-387.506 328.683 -387.699 328.054 -387.898 327.406 C-388.444 325.613 -388.981 323.817 -389.512 322.02 C-390.156 319.841 -390.824 317.669 -391.5 315.5 C-393.105 308.82 -393.279 301.439 -391.25 294.875 C-385.2 286.873 -385.2 286.873 -379.656 285.797 C-373.714 285.568 -368.772 286.191 -364.312 290.312 C-353.517 302.471 -349.853 321.609 -345.131 336.715 C-344.224 339.592 -343.283 342.456 -342.312 345.312 C-342.788 342.853 -343.268 340.395 -343.75 337.938 C-343.885 337.239 -344.019 336.54 -344.158 335.82 C-344.89 331.956 -344.89 331.956 -346.312 328.312 C-346.778 325.46 -347.211 322.61 -347.625 319.75 C-348.615 313.176 -349.807 306.711 -351.375 300.25 C-351.546 299.542 -351.717 298.834 -351.893 298.104 C-352.588 295.241 -353.295 292.381 -354.012 289.523 C-356.048 280.658 -357.468 270.041 -352.594 261.93 C-349.758 258.35 -346.102 254.718 -341.43 254.039 C-334.145 253.709 -329.933 256.018 -324.621 260.852 C-320.355 265.363 -318.302 270.495 -316.312 276.312 C-315.923 275.879 -315.534 275.446 -315.133 275 C-311.712 271.595 -309.229 269.853 -304.312 269.688 C-298.475 270.103 -294.781 271.707 -290.762 275.949 C-278.081 292.627 -275.614 319.425 -272.891 339.516 C-272.543 343.108 -272.543 343.108 -271.312 345.312 C-271.158 347.138 -271.158 347.138 -271 349 C-270.268 355.963 -268.298 362.622 -266.312 369.312 C-266.094 370.048 -265.876 370.783 -265.651 371.541 C-262.546 381.811 -258.823 391.084 -253.312 400.312 C-251.5 398.5 -251.761 395.919 -251.413 393.484 C-249.007 376.867 -243.813 364.067 -230.742 353.043 C-222.281 347.016 -212.469 345.93 -202.312 347.312 C-198.72 348.848 -196.107 350.723 -194.312 354.312 C-193.784 359.13 -193.721 363.106 -195.875 367.5 C-197.752 369.666 -199.624 371.591 -201.688 373.562 C-214.115 385.67 -216.421 402.508 -216.75 419.062 C-217.059 428.483 -217.81 437.185 -220.312 446.312 C-220.504 447.015 -220.696 447.718 -220.894 448.442 C-225.34 464.257 -232.76 476.778 -243.312 489.312 C-243.841 490.061 -244.37 490.81 -244.914 491.582 C-245.376 492.153 -245.837 492.724 -246.312 493.312 C-246.972 493.312 -247.632 493.312 -248.312 493.312 C-246.993 494.632 -245.673 495.952 -244.312 497.312 C-241.979 494.355 -240.149 491.331 -238.379 488.008 C-237.538 486.437 -237.538 486.437 -236.681 484.834 C-235.787 483.153 -235.787 483.153 -234.875 481.438 C-233.93 479.672 -232.984 477.907 -232.038 476.142 C-231.077 474.35 -230.117 472.556 -229.158 470.763 C-218.558 450.948 -207.945 431.244 -194.312 413.312 C-193.367 412.052 -193.367 412.052 -192.402 410.766 C-173.999 388.104 -138.325 383.462 -111.706 377.459 C-98.639 374.508 -85.655 371.239 -72.824 367.379 C-71.208 366.894 -71.208 366.894 -69.559 366.4 C-67.496 365.776 -65.435 365.142 -63.378 364.496 C-57.8 362.802 -53.144 361.968 -47.312 362.312 C-46.983 363.303 -46.652 364.293 -46.312 365.312 C-45.322 365.312 -44.332 365.312 -43.312 365.312 C-42.896 360.316 -42.555 355.322 -42.281 350.316 C-42.178 348.617 -42.054 346.918 -41.91 345.221 C-41.146 337.205 -41.146 337.205 -42.312 329.312 C-45.482 325.732 -48.959 324.148 -53.312 322.312 C-74.881 306.629 -89.991 282.435 -94.902 256.156 C-95.522 253.077 -96.148 250.23 -97.312 247.312 C-100.48 245.276 -100.48 245.276 -104.312 244.312 C-115.568 237.479 -122.638 227.046 -126.461 214.562 C-127.566 209.82 -127.643 205.164 -127.625 200.312 C-127.649 199.036 -127.649 199.036 -127.674 197.734 C-127.68 189.384 -125.62 182.916 -119.836 176.723 C-115.084 172.324 -109.407 173.099 -103.312 173.312 C-103.555 172.378 -103.797 171.443 -104.047 170.48 C-106.26 161.84 -108.241 153.178 -110.005 144.434 C-110.797 140.257 -110.797 140.257 -112.312 136.312 C-114.032 128.694 -114.52 121.157 -114.562 113.375 C-114.572 112.571 -114.581 111.766 -114.59 110.938 C-114.567 106.339 -114.063 102.64 -112.312 98.312 C-112.903 98.034 -113.493 97.756 -114.102 97.469 C-123.469 92.57 -128.266 83.875 -131.688 74.188 C-135.13 61.857 -134.518 50.614 -128.312 39.312 C-127.901 38.525 -127.49 37.737 -127.066 36.926 C-116.862 19.576 -95.686 11.495 -77.312 6.312 C-76.102 5.971 -74.892 5.629 -73.645 5.277 C-65.902 3.43 -58.437 3.044 -50.5 3 C-49.545 2.994 -48.59 2.989 -47.607 2.983 C-31.037 3.153 -14.354 8.318 -1.879 19.492 C8.345 30.009 12.976 41.892 12.93 56.402 C12.692 71.249 5.045 86.346 -4.312 97.75 C-6.312 99.312 -6.312 99.312 -8.562 99.062 C-9.429 98.691 -9.429 98.691 -10.312 98.312 C-10.982 92.3 -8.661 88.252 -6 83.062 C-1.229 73.673 2.273 64.976 2.125 54.312 C2.113 53.141 2.113 53.141 2.1 51.946 C1.796 41.562 -2.093 33.768 -9.312 26.312 C-20.988 16.097 -34.244 13.133 -49.25 13.125 C-50.411 13.113 -51.572 13.101 -52.768 13.088 C-64.195 13.069 -75.029 14.299 -85.75 18.375 C-86.552 18.675 -87.354 18.975 -88.18 19.285 C-99.405 23.685 -112.527 30.687 -118.625 41.438 C-119.116 42.286 -119.607 43.134 -120.113 44.008 C-124.255 51.968 -123.432 63.969 -121.629 72.574 C-120.709 75.006 -119.677 77.102 -118.312 79.312 C-117.888 80.024 -117.464 80.736 -117.027 81.469 C-112.021 88.943 -105.475 93.165 -96.737 94.938 C-92.796 95.547 -88.919 95.651 -84.938 95.625 C-84.111 95.624 -83.285 95.622 -82.433 95.621 C-76.807 95.533 -71.79 94.823 -66.441 92.969 C-64.312 92.312 -64.312 92.312 -60.312 92.312 C-60.312 93.963 -60.312 95.613 -60.312 97.312 C-62.228 98.129 -64.145 98.94 -66.062 99.75 C-67.13 100.202 -68.197 100.655 -69.297 101.121 C-73.929 102.951 -77.558 103.429 -82.562 103.375 C-83.64 103.366 -84.718 103.357 -85.828 103.348 C-87.058 103.33 -87.058 103.33 -88.312 103.312 C-89.977 129.575 -90.557 155.819 -90.618 182.128 C-90.625 184.472 -90.638 186.815 -90.653 189.159 C-90.897 221.337 -90.897 221.337 -85.004 252.841 C-84.344 255.199 -83.825 257.547 -83.355 259.949 C-82.346 264.616 -80.612 268.797 -78.625 273.125 C-78.268 273.908 -77.912 274.69 -77.544 275.497 C-71.993 287.491 -65.611 297.001 -56.312 306.312 C-55.216 307.426 -55.216 307.426 -54.098 308.562 C-40.274 321.743 -21.323 328.844 -2.355 328.527 C18.663 327.72 39.449 317.279 53.812 302.188 C63.365 290.975 69.583 276.937 72.875 262.688 C73.03 262.027 73.185 261.366 73.345 260.685 C76.629 245.309 76.987 229.818 76.893 214.161 C76.875 210.987 76.873 207.813 76.873 204.639 C76.857 195.354 76.806 186.127 75.918 176.879 C75.546 172.739 75.192 168.45 75.688 164.312 C76.348 163.653 77.007 162.993 77.688 162.312 C80.313 162.517 81.389 162.985 83.172 164.941 C83.798 165.899 83.798 165.899 84.438 166.875 C84.865 167.516 85.293 168.156 85.734 168.816 C86.049 169.31 86.363 169.804 86.688 170.312 C92.124 155.826 96.846 141.579 100.201 126.459 C100.644 124.503 101.125 122.556 101.609 120.609 C103.572 111.909 104.026 103.463 104.125 94.562 C104.147 93.438 104.169 92.313 104.192 91.155 C104.166 81.275 102.263 71.048 95.688 63.312 C91.749 59.475 88.561 59.035 83.25 58.938 C78.318 59.083 74.349 59.821 69.688 61.312 C67.355 61.387 65.019 61.408 62.688 61.312 C60.344 57.057 59.201 53.407 58.438 48.625 C56.491 39.065 51.869 31.204 44.266 25.008 C30.124 15.709 15.687 11.33 -1.062 10.102 C-1.967 10.027 -2.872 9.952 -3.805 9.875 C-4.623 9.814 -5.441 9.754 -6.285 9.691 C-8.312 9.312 -8.312 9.312 -10.312 7.312 C-10.625 4.812 -10.625 4.812 -10.312 2.312 C-6.737 -0.071 -4.134 -0.033 0 0 Z " fill="#090909" transform="translate(542.3125,129.6875)"/>
<path d="M0 0 C4.137 0.299 6.238 1.424 9.062 4.562 C12.624 10.941 14.777 17.439 16.812 24.438 C17.152 25.596 17.491 26.755 17.841 27.949 C23.422 47.414 28.836 67.419 31.14 87.566 C31.724 92.456 32.836 96.215 35.062 100.562 C37.079 101.696 37.079 101.696 39.062 101.562 C40.759 99.866 40.235 97.761 40.25 95.438 C40.176 86.577 39.056 77.799 37.078 69.164 C36.054 64.676 35.35 60.178 34.688 55.625 C33.579 48.225 32.145 40.962 30.333 33.701 C27.548 22.086 27.548 22.086 30.562 17.062 C31.058 16.567 31.553 16.072 32.062 15.562 C38.466 15.932 38.466 15.932 41.142 18.759 C47.463 27.986 49.502 39.661 51.803 50.43 C52.315 52.826 52.844 55.218 53.375 57.609 C53.714 59.161 54.053 60.713 54.391 62.266 C54.545 62.966 54.699 63.666 54.858 64.388 C55.797 68.81 56.401 73.186 56.805 77.69 C56.972 79.65 56.972 79.65 58.062 81.562 C58.166 82.759 58.269 83.955 58.375 85.188 C59.048 91.817 60.881 98.19 62.566 104.617 C63.011 106.363 63.417 108.118 63.816 109.875 C65.422 116.922 67.914 123.072 71.062 129.562 C71.84 131.289 72.612 133.018 73.375 134.75 C73.701 135.486 74.027 136.222 74.363 136.98 C74.709 137.764 74.709 137.764 75.062 138.562 C74.384 138.649 73.706 138.735 73.008 138.824 C61.746 140.524 52.693 144.953 45.062 153.562 C36.75 165.849 34.822 178.04 35.062 192.562 C37.035 192.239 37.035 192.239 39.062 191.562 C40.418 188.776 40.999 186.13 41.344 183.059 C42.727 171.506 47.608 159.254 56.91 151.824 C64.618 147.306 70.617 147.186 79.5 147.375 C80.708 147.389 81.917 147.402 83.162 147.416 C86.129 147.451 89.096 147.5 92.062 147.562 C93.469 144.315 94.358 141.452 94.738 137.938 C94.841 137.072 94.944 136.207 95.05 135.315 C95.157 134.407 95.264 133.498 95.375 132.562 C97.143 119.212 100.391 107.251 110.855 97.973 C117.634 92.81 124.655 91.665 133.062 92.562 C134.053 93.222 135.043 93.882 136.062 94.562 C135.561 98.73 134.571 100.441 131.438 103.188 C116.548 117.384 113.175 136.508 112.562 156.188 C112.282 165.025 111.515 173.024 109.062 181.562 C108.723 182.779 108.384 183.996 108.035 185.25 C103.484 200.205 95.706 212.41 85.031 223.82 C84.5 224.389 83.968 224.957 83.421 225.543 C82.38 226.648 81.332 227.745 80.274 228.834 C74.756 234.632 71.631 239.426 71.812 247.75 C71.609 251.445 71.609 251.445 71.062 254.562 C67.99 257.187 66.83 257.595 63.062 258.562 C61.763 258.986 60.467 259.416 59.172 259.852 C50.814 262.587 42.894 264.428 34.062 264.562 C33.165 264.582 32.268 264.601 31.344 264.62 C28.208 264.681 25.073 264.72 21.938 264.75 C20.387 264.77 20.387 264.77 18.806 264.79 C17.351 264.792 17.351 264.792 15.867 264.793 C14.552 264.799 14.552 264.799 13.21 264.805 C11.062 264.562 11.062 264.562 9.062 262.562 C8.525 261.202 8.032 259.823 7.562 258.438 C5.646 253.471 3.096 249.158 0.25 244.688 C-0.414 243.639 -0.414 243.639 -1.092 242.57 C-2.972 239.614 -4.866 236.671 -6.793 233.746 C-19.94 212.792 -25.624 187.954 -30.788 164.07 C-35.138 144.086 -42.161 125.396 -50.324 106.676 C-52.189 102.356 -54.001 98.02 -55.742 93.648 C-56.153 92.619 -56.564 91.589 -56.988 90.529 C-58.354 86.261 -58.79 81.986 -57.938 77.562 C-55.938 75.562 -55.938 75.562 -53.625 75.062 C-50.326 75.676 -49.279 77.047 -47.242 79.618 C-44.707 83.396 -43.056 87.564 -41.312 91.75 C-40.894 92.734 -40.475 93.717 -40.043 94.731 C-34.87 106.95 -29.894 119.254 -24.938 131.562 C-23.618 131.232 -22.298 130.903 -20.938 130.562 C-20.3 122.144 -22.629 115.214 -25.312 107.312 C-25.765 105.947 -26.216 104.581 -26.667 103.215 C-29.367 95.06 -32.185 86.947 -35.017 78.838 C-46.258 46.63 -46.258 46.63 -44.938 36.562 C-43.312 33.5 -43.312 33.5 -40.938 31.562 C-37.257 30.858 -35.615 31.126 -32.461 33.156 C-29.487 35.992 -28.029 38.891 -26.5 42.625 C-26.058 43.669 -26.058 43.669 -25.608 44.734 C-22.447 52.411 -20.014 60.31 -17.633 68.255 C-16.557 71.825 -15.433 75.381 -14.312 78.938 C-13.161 82.601 -12.024 86.266 -10.949 89.953 C-7.278 103.749 -7.278 103.749 0.062 115.562 C3.646 115.729 3.646 115.729 7.062 115.562 C9.731 106.231 7.627 96.374 5.981 87.025 C5.62 84.973 5.273 82.92 4.928 80.865 C4.085 74.536 4.085 74.536 2.062 68.562 C1.74 66.463 1.455 64.357 1.188 62.25 C0.398 56.512 -0.711 50.975 -2.078 45.352 C-3.417 39.449 -4.492 33.498 -5.58 27.545 C-5.742 26.67 -5.903 25.796 -6.07 24.895 C-6.214 24.108 -6.357 23.321 -6.504 22.511 C-6.87 20.496 -6.87 20.496 -7.938 18.562 C-8.112 16.463 -8.205 14.356 -8.25 12.25 C-8.306 10.554 -8.306 10.554 -8.363 8.824 C-7.631 3.218 -5.579 0.797 0 0 Z " fill="#FEFEFE" transform="translate(203.9375,393.4375)"/>
<path d="M0 0 C4.875 0.875 4.875 0.875 6 2 C5.854 29.291 5.854 29.291 1 39 C0.799 40.496 0.637 41.997 0.5 43.5 C0.111 47.778 0.111 47.778 -1 50 C-1.263 51.365 -1.485 52.738 -1.684 54.113 C-1.807 54.951 -1.93 55.788 -2.057 56.65 C-2.245 57.968 -2.245 57.968 -2.438 59.312 C-2.686 61.017 -2.935 62.721 -3.184 64.426 C-3.314 65.319 -3.444 66.212 -3.577 67.132 C-4.651 74.421 -5.785 81.7 -6.965 88.973 C-10.124 108.619 -12.836 128.409 -13.638 148.31 C-13.797 151.94 -14.031 155.529 -14.474 159.136 C-16.53 176.164 -16.267 193.23 -16.196 210.349 C-16.185 213.64 -16.185 216.93 -16.186 220.22 C-16.185 223.443 -16.18 226.667 -16.173 229.89 C-16.17 231.404 -16.168 232.917 -16.167 234.431 C-16.401 255.527 -16.401 255.527 -11.625 275.875 C-11.012 277.58 -10.4 279.286 -9.789 280.992 C-9.486 281.823 -9.184 282.655 -8.872 283.511 C-7.732 286.766 -6.766 290.062 -5.795 293.371 C-3.978 299.381 -1.895 305.31 0.127 311.254 C1.107 314.163 2.062 317.078 3 320 C3.224 320.671 3.447 321.341 3.678 322.032 C5.601 328.522 5.294 335.225 5.375 341.938 C5.602 353.614 6.477 365.101 7.938 376.688 C8.066 377.713 8.066 377.713 8.197 378.76 C9.573 389.643 10.962 400.562 13.75 411.188 C14.097 412.54 14.444 413.893 14.789 415.246 C14.979 415.987 15.169 416.728 15.364 417.492 C16.651 422.57 17.89 427.659 19.125 432.75 C19.379 433.779 19.632 434.808 19.894 435.868 C22.52 446.719 24.333 457.062 24.125 468.25 C24.116 469.197 24.107 470.145 24.098 471.121 C24.074 473.414 24.039 475.707 24 478 C21.03 478 18.06 478 15 478 C13.257 474.513 13.676 470.301 13.57 466.439 C12.99 453.25 9.711 440.221 6.583 427.443 C4.031 416.989 1.553 406.528 -0.375 395.938 C-0.59 394.775 -0.59 394.775 -0.808 393.589 C-3.431 378.527 -4.342 363.689 -4.381 348.428 C-4.419 339.433 -4.872 331.576 -7.952 323.001 C-9.219 319.373 -10.105 315.737 -11 312 C-10.419 327.685 -8.825 343.214 -7.125 358.812 C-6.714 362.633 -6.305 366.454 -5.896 370.275 C-5.629 372.769 -5.361 375.264 -5.093 377.758 C-4.095 387.043 -3.154 396.331 -2.25 405.625 C-1.456 413.761 -0.528 421.848 0.594 429.945 C1.857 439.447 2.14 448.925 2.25 458.5 C2.271 459.552 2.293 460.604 2.315 461.687 C2.355 470.974 2.355 470.974 -1 475 C-3.375 474.75 -3.375 474.75 -6 474 C-8.256 470.713 -8.313 467.629 -8.457 463.719 C-8.515 462.424 -8.573 461.129 -8.633 459.794 C-8.661 459.097 -8.69 458.4 -8.719 457.683 C-9.353 442.821 -10.718 428.085 -12.438 413.312 C-12.548 412.357 -12.659 411.401 -12.773 410.416 C-13.837 401.276 -14.948 392.149 -16.268 383.042 C-18.264 369.186 -18.996 355.239 -19.871 341.276 C-20.625 329.291 -21.518 317.333 -22.625 305.375 C-23.47 296.226 -24.275 287.094 -24.638 277.911 C-24.806 274.018 -25.062 270.155 -25.474 266.279 C-27.206 249.809 -27.273 233.411 -27.196 216.875 C-27.185 213.95 -27.185 211.026 -27.186 208.101 C-27.185 189.712 -27.014 171.468 -24.719 153.199 C-24.109 148.344 -23.746 143.511 -23.5 138.625 C-23.182 132.438 -22.699 126.287 -22.062 120.125 C-21.988 119.377 -21.913 118.629 -21.836 117.858 C-21.404 113.825 -20.813 109.864 -20.059 105.879 C-18.624 98.238 -17.716 90.528 -16.75 82.817 C-15.168 70.243 -15.168 70.243 -13.973 65.723 C-12.755 61.061 -12.099 56.393 -11.438 51.625 C-11.189 49.846 -10.938 48.067 -10.684 46.289 C-10.576 45.513 -10.468 44.736 -10.357 43.936 C-10 42 -10 42 -9 40 C-8.533 37.169 -8.101 34.339 -7.688 31.5 C-6.642 24.618 -5.427 17.8 -3.938 11 C-3.775 10.241 -3.613 9.483 -3.446 8.701 C-2.679 5.292 -1.96 2.94 0 0 Z " fill="#090909" transform="translate(713,546)"/>
<path d="M0 0 C5.039 7.559 4.583 19.375 5.562 28.25 C5.813 30.484 6.065 32.719 6.316 34.953 C6.433 35.99 6.549 37.027 6.668 38.096 C7.084 41.734 7.535 45.367 8 49 C-7.062 56.19 -22.424 58.481 -39 58.438 C-40.274 58.435 -41.549 58.433 -42.862 58.431 C-54.908 58.24 -65.535 56.822 -77 53 C-76.67 41.78 -76.34 30.56 -76 19 C-72.7 19.99 -69.4 20.98 -66 22 C-61.047 23.238 -56.459 23.223 -51.375 23.25 C-50.428 23.271 -49.48 23.291 -48.504 23.312 C-38.891 23.365 -30.73 20.763 -22.188 16.5 C-21.514 16.165 -20.84 15.831 -20.146 15.486 C-12.545 11.518 -6.049 6.049 0 0 Z " fill="#FEFEFE" transform="translate(584,461)"/>
<path d="M0 0 C4.666 2.993 6.908 5.927 9 11 C10.595 24.479 7.711 36.089 0.125 47.387 C-5.052 53.753 -11.528 58.646 -19 62 C-19.66 62 -20.32 62 -21 62 C-21.005 55.81 -20.971 49.622 -20.902 43.433 C-20.884 41.333 -20.877 39.232 -20.88 37.131 C-20.902 13.703 -20.902 13.703 -12.562 3.188 C-8.916 -0.459 -4.853 -1.201 0 0 Z " fill="#FEFEFE" transform="translate(650,304)"/>
<path d="M0 0 C2.007 0.17 2.007 0.17 4 1 C5.442 3.497 6.643 5.88 7.812 8.5 C16.234 26.21 30.331 37.294 48.75 43.875 C52.996 45.137 57.346 45.87 61.715 46.57 C64 47 64 47 66 48 C66.188 50.375 66.188 50.375 66 53 C60.269 56.821 51.668 55.824 44.993 54.646 C28.516 50.795 14.21 39.113 4.562 25.438 C0.174 18.302 -3.59 10.577 -2 2 C-1.34 1.34 -0.68 0.68 0 0 Z " fill="#090909" transform="translate(462,178)"/>
<path d="M0 0 C1.32 0.33 2.64 0.66 4 1 C3.576 6.088 2.377 9.719 -0.062 14.203 C-4.145 22.028 -2.67 33.678 -0.562 41.938 C3.455 54.345 10.015 65.514 18.348 75.484 C20.192 78.293 20.373 79.71 20 83 C17.058 83.431 14.876 83.563 12.311 81.915 C7.985 78.197 4.864 74.383 1.938 69.5 C1.513 68.804 1.088 68.107 0.65 67.39 C-7.621 53.519 -13.891 38.404 -12 22 C-9.812 13.375 -5.912 6.594 0 0 Z " fill="#090909" transform="translate(604,206)"/>
<path d="M0 0 C2.517 1.662 3.566 2.443 5 5 C5.73 9.098 5.695 13.158 5.688 17.312 C5.726 19.659 5.771 22.005 5.82 24.352 C5.843 25.49 5.865 26.629 5.888 27.802 C6.076 33.176 6.795 38.419 7.598 43.73 C8.023 47.184 8.066 50.524 8 54 C1.703 52.283 -2.284 47.668 -5.711 42.34 C-10.476 33.891 -12.361 26.58 -12.375 16.938 C-12.399 16.065 -12.424 15.193 -12.449 14.295 C-12.475 8.554 -11.777 5.388 -8 1 C-5.111 -0.444 -3.204 -0.377 0 0 Z " fill="#FEFEFE" transform="translate(436,312)"/>
<path d="M0 0 C1.65 0.33 3.3 0.66 5 1 C5.688 3.223 5.688 3.223 6 6 C4.196 9.412 1.589 12.153 -1 15 C-1.495 15.55 -1.99 16.101 -2.5 16.668 C-11.813 25.714 -25.228 29.333 -37.795 29.385 C-49.818 29.163 -59.736 24.6 -69 17 C-69.568 16.544 -70.137 16.087 -70.723 15.617 C-73.091 13.519 -73.958 12.374 -74.312 9.188 C-74.209 8.466 -74.106 7.744 -74 7 C-71.797 6.27 -71.797 6.27 -69 6 C-66.641 7.512 -66.641 7.512 -64.25 9.688 C-59.747 13.527 -55.55 16.012 -50 18 C-49.059 18.356 -48.118 18.712 -47.148 19.078 C-35.15 22.591 -23.402 19.091 -12.75 13.375 C-7.287 9.945 -3.689 5.214 0 0 Z " fill="#090909" transform="translate(572,377)"/>
<path d="M0 0 C6.213 2.278 12.068 4.696 15.812 10.312 C16.285 13.035 16.25 15.585 15.812 18.312 C14.375 20.312 14.375 20.312 11.812 21.312 C4.516 22.254 -1.002 20.224 -7.797 17.613 C-10.659 16.515 -13.505 15.572 -16.438 14.688 C-20.188 13.312 -20.188 13.312 -22.188 10.312 C-22.958 3.376 -22.958 3.376 -20.375 -0.188 C-13.647 -3.354 -6.916 -2.145 0 0 Z " fill="#090909" transform="translate(568.1875,253.6875)"/>
<path d="M0 0 C3.536 0.536 3.536 0.536 5 2 C6.017 15.977 3.692 30.327 1 44 C-0.295 51.383 -0.658 58.659 1 66 C0 67 0 67 -2.875 67.25 C-6 67 -6 67 -7.664 65.91 C-13.23 57.952 -8.119 40.556 -6.625 31.875 C-5.963 28.172 -5.296 24.47 -4.626 20.769 C-3.754 15.516 -3.135 10.244 -2.541 4.954 C-2 2 -2 2 0 0 Z " fill="#090909" transform="translate(523,307)"/>
<path d="M0 0 C2.475 0.495 2.475 0.495 5 1 C5.963 9.67 2.259 14.676 -2.828 21.426 C-7.497 27.072 -12.501 30.688 -19 34 C-19.878 34.452 -20.756 34.905 -21.66 35.371 C-30.521 39.668 -40.054 42.921 -50 42 C-50.66 41.34 -51.32 40.68 -52 40 C-52 39.01 -52 38.02 -52 37 C-48.051 34.631 -44.387 33.573 -39.875 32.625 C-27.441 29.859 -15.051 24.818 -7.02 14.441 C-4.191 9.853 -1.962 5.014 0 0 Z " fill="#090909" transform="translate(596,189)"/>
<path d="M0 0 C4.438 2.14 7.087 4.43 9 9 C9.542 13.26 9.301 15.421 7.312 19.25 C4.932 22.08 3.433 23.643 0 25 C-4.014 24.93 -6.203 24.629 -9.375 22.125 C-12.365 18.215 -12.09 14.763 -12 10 C-13.98 11.32 -15.96 12.64 -18 14 C-18.66 13.34 -19.32 12.68 -20 12 C-20 8.936 -19.776 6.851 -17.66 4.531 C-11.864 -0.344 -7.408 -0.753 0 0 Z " fill="#090909" transform="translate(568,307)"/>
<path d="M0 0 C2.562 1.562 2.562 1.562 4 4 C4.562 7.438 4.562 7.438 4 11 C0.489 15.259 -3.304 17.383 -8.375 19.312 C-9.009 19.576 -9.643 19.84 -10.297 20.111 C-14.667 21.828 -18.329 22.342 -23 22 C-24.938 21 -24.938 21 -26 19 C-26.608 15.685 -26.885 14.127 -26 11 C-20.121 3.286 -9.714 -1.885 0 0 Z " fill="#090909" transform="translate(499,257)"/>
<path d="M0 0 C2.81 1.794 4.509 3.019 6 6 C6.531 9.794 6.851 13.463 4.953 16.891 C2.036 20.426 0.218 21.862 -4.312 22.375 C-8 22 -8 22 -10.875 19.625 C-14.078 15.668 -14.333 13.234 -14.293 8.262 C-13.863 4.946 -12.391 3.25 -10 1 C-6.798 -0.601 -3.474 -0.499 0 0 Z " fill="#090909" transform="translate(498,309)"/>
<path d="M0 0 C2.068 3.102 2.933 5.632 4 9.188 C4.33 10.274 4.66 11.361 5 12.48 C5.33 13.642 5.66 14.803 6 16 C6.342 17.187 6.684 18.374 7.037 19.597 C8.221 24.386 8.349 29.054 8.414 33.969 C8.433 34.89 8.453 35.811 8.473 36.759 C8.532 39.673 8.579 42.586 8.625 45.5 C8.663 47.487 8.702 49.474 8.742 51.461 C8.838 56.307 8.922 61.153 9 66 C8.34 66 7.68 66 7 66 C6.67 67.32 6.34 68.64 6 70 C5.305 63.366 4.612 56.731 3.919 50.096 C3.683 47.843 3.448 45.591 3.212 43.338 C2.871 40.083 2.531 36.829 2.191 33.574 C2.087 32.581 1.983 31.588 1.876 30.565 C-0.145 11.168 -0.145 11.168 -0.062 4.812 C-0.053 3.891 -0.044 2.969 -0.035 2.02 C-0.024 1.353 -0.012 0.687 0 0 Z " fill="#E4E5E5" transform="translate(701,855)"/>
<path d="M0 0 C1.875 0 1.875 0 4 1 C8.082 9.163 9.522 16.501 7.059 25.402 C4.843 31.466 2.582 36.418 -2 41 C-3.32 40.67 -4.64 40.34 -6 40 C-5.44 36.31 -4.434 33.935 -2.438 30.812 C1.795 22.725 0.894 12.319 -0.586 3.516 C-0.723 2.685 -0.859 1.855 -1 1 C-0.67 0.67 -0.34 0.34 0 0 Z " fill="#090909" transform="translate(567,168)"/>
<path d="M0 0 C0.33 0.66 0.66 1.32 1 2 C1.66 2.33 2.32 2.66 3 3 C-4.336 17.192 -12.071 31.131 -20 45 C-22.5 43.625 -22.5 43.625 -25 42 C-25 41.34 -25 40.68 -25 40 C-24.34 40 -23.68 40 -23 40 C-22.754 39.438 -22.508 38.876 -22.254 38.297 C-20.78 35.596 -18.971 33.56 -16.938 31.25 C-9.359 22.117 -3.084 11.514 0 0 Z " fill="#DCDCDC" transform="translate(319,583)"/>
<path d="M0 0 C1 3 1 3 -0.215 5.699 C-0.783 6.685 -1.352 7.671 -1.938 8.688 C-2.503 9.681 -3.069 10.675 -3.652 11.699 C-4.097 12.458 -4.542 13.218 -5 14 C-7.5 12.625 -7.5 12.625 -10 11 C-10 10.34 -10 9.68 -10 9 C-9.34 9 -8.68 9 -8 9 C-7.794 8.443 -7.587 7.886 -7.375 7.312 C-5.45 4.075 -2.961 2.318 0 0 Z " fill="#F0F0F1" transform="translate(304,614)"/>
<path d="M0 0 C2.625 0.375 2.625 0.375 5 1 C5.33 2.65 5.66 4.3 6 6 C3 8 3 8 0.812 7.625 C0.214 7.419 -0.384 7.212 -1 7 C-1.625 4.625 -1.625 4.625 -2 2 C-1.34 1.34 -0.68 0.68 0 0 Z " fill="#151516" transform="translate(640,329)"/>
<path d="M0 0 C4.396 6.594 2.896 14.498 2 22 C1.67 22 1.34 22 1 22 C0.203 14.64 -0.129 7.402 0 0 Z " fill="#A7A8A9" transform="translate(701,855)"/>
<path d="M0 0 C0.33 0.66 0.66 1.32 1 2 C1.66 2.33 2.32 2.66 3 3 C1.35 6.3 -0.3 9.6 -2 13 C-2.66 12.34 -3.32 11.68 -4 11 C-2.68 7.37 -1.36 3.74 0 0 Z " fill="#C9C9C9" transform="translate(319,583)"/>
<path d="M0 0 C0.99 0.33 1.98 0.66 3 1 C2.01 2.98 1.02 4.96 0 7 C-0.99 7 -1.98 7 -3 7 C-3 3.483 -2.176 2.629 0 0 Z " fill="#DCDCDC" transform="translate(306,609)"/>
<path d="M0 0 C2 2 2 2 2.195 3.945 C2.13 5.964 2.065 7.982 2 10 C0.042 7.063 -0.561 5.426 -1 2 C-0.67 1.34 -0.34 0.68 0 0 Z " fill="#E4E5E5" transform="translate(196,458)"/>
</svg>